<mxfile host="Electron" agent="Mozilla/5.0 (Windows NT 10.0; Win64; x64) AppleWebKit/537.36 (KHTML, like Gecko) draw.io/24.7.5 Chrome/126.0.6478.183 Electron/31.3.0 Safari/537.36" version="24.7.5">
  <diagram name="ページ1" id="ORtqpvCr001SEY-BLJqJ">
    <mxGraphModel dx="757" dy="643" grid="1" gridSize="10" guides="1" tooltips="1" connect="1" arrows="1" fold="1" page="1" pageScale="1" pageWidth="827" pageHeight="1169" math="0" shadow="0">
      <root>
        <mxCell id="0" />
        <mxCell id="1" parent="0" />
        <mxCell id="6" style="edgeStyle=none;html=1;entryX=0;entryY=0.5;entryDx=0;entryDy=0;jumpSize=6;arcSize=0;" parent="1" source="2" target="3" edge="1">
          <mxGeometry relative="1" as="geometry">
            <Array as="points">
              <mxPoint x="160" y="130" />
            </Array>
          </mxGeometry>
        </mxCell>
        <mxCell id="xKCvOvqSmLsIwHPzXdJe-7" style="edgeStyle=orthogonalEdgeStyle;rounded=0;orthogonalLoop=1;jettySize=auto;html=1;entryX=0;entryY=0.5;entryDx=0;entryDy=0;" edge="1" parent="1" source="2" target="5">
          <mxGeometry relative="1" as="geometry" />
        </mxCell>
        <mxCell id="xKCvOvqSmLsIwHPzXdJe-13" style="edgeStyle=orthogonalEdgeStyle;rounded=0;orthogonalLoop=1;jettySize=auto;html=1;entryX=0;entryY=0.5;entryDx=0;entryDy=0;" edge="1" parent="1" source="2" target="xKCvOvqSmLsIwHPzXdJe-12">
          <mxGeometry relative="1" as="geometry" />
        </mxCell>
        <mxCell id="xKCvOvqSmLsIwHPzXdJe-21" style="edgeStyle=orthogonalEdgeStyle;rounded=0;orthogonalLoop=1;jettySize=auto;html=1;entryX=0;entryY=0.5;entryDx=0;entryDy=0;" edge="1" parent="1" source="2" target="xKCvOvqSmLsIwHPzXdJe-20">
          <mxGeometry relative="1" as="geometry" />
        </mxCell>
        <mxCell id="2" value="root" style="rounded=0;whiteSpace=wrap;html=1;" parent="1" vertex="1">
          <mxGeometry x="120" y="80" width="80" height="20" as="geometry" />
        </mxCell>
        <mxCell id="xKCvOvqSmLsIwHPzXdJe-6" style="edgeStyle=orthogonalEdgeStyle;rounded=0;orthogonalLoop=1;jettySize=auto;html=1;entryX=0;entryY=0.5;entryDx=0;entryDy=0;" edge="1" parent="1" source="3" target="4">
          <mxGeometry relative="1" as="geometry" />
        </mxCell>
        <mxCell id="3" value="cam" style="rounded=0;whiteSpace=wrap;html=1;fillColor=#dae8fc;strokeColor=#6c8ebf;" parent="1" vertex="1">
          <mxGeometry x="200" y="120" width="80" height="20" as="geometry" />
        </mxCell>
        <mxCell id="4" value="camera1" style="rounded=0;whiteSpace=wrap;html=1;fillColor=#dae8fc;strokeColor=#6c8ebf;" parent="1" vertex="1">
          <mxGeometry x="280" y="150" width="80" height="20" as="geometry" />
        </mxCell>
        <mxCell id="xKCvOvqSmLsIwHPzXdJe-10" style="edgeStyle=orthogonalEdgeStyle;rounded=0;orthogonalLoop=1;jettySize=auto;html=1;entryX=0;entryY=0.5;entryDx=0;entryDy=0;" edge="1" parent="1" source="5" target="xKCvOvqSmLsIwHPzXdJe-8">
          <mxGeometry relative="1" as="geometry" />
        </mxCell>
        <mxCell id="xKCvOvqSmLsIwHPzXdJe-11" style="edgeStyle=orthogonalEdgeStyle;rounded=0;orthogonalLoop=1;jettySize=auto;html=1;entryX=0;entryY=0.5;entryDx=0;entryDy=0;" edge="1" parent="1" source="5" target="xKCvOvqSmLsIwHPzXdJe-9">
          <mxGeometry relative="1" as="geometry" />
        </mxCell>
        <mxCell id="5" value="lgt" style="rounded=0;whiteSpace=wrap;html=1;fillColor=#fff2cc;strokeColor=#d6b656;" parent="1" vertex="1">
          <mxGeometry x="200" y="200" width="80" height="20" as="geometry" />
        </mxCell>
        <mxCell id="xKCvOvqSmLsIwHPzXdJe-8" value="lgt_env" style="rounded=0;whiteSpace=wrap;html=1;fillColor=#fff2cc;strokeColor=#d6b656;" vertex="1" parent="1">
          <mxGeometry x="280" y="230" width="80" height="20" as="geometry" />
        </mxCell>
        <mxCell id="xKCvOvqSmLsIwHPzXdJe-9" value="lgt_key" style="rounded=0;whiteSpace=wrap;html=1;fillColor=#fff2cc;strokeColor=#d6b656;" vertex="1" parent="1">
          <mxGeometry x="280" y="260" width="80" height="20" as="geometry" />
        </mxCell>
        <mxCell id="xKCvOvqSmLsIwHPzXdJe-17" style="edgeStyle=orthogonalEdgeStyle;rounded=0;orthogonalLoop=1;jettySize=auto;html=1;entryX=0;entryY=0.5;entryDx=0;entryDy=0;" edge="1" parent="1" source="xKCvOvqSmLsIwHPzXdJe-12" target="xKCvOvqSmLsIwHPzXdJe-14">
          <mxGeometry relative="1" as="geometry" />
        </mxCell>
        <mxCell id="xKCvOvqSmLsIwHPzXdJe-18" style="edgeStyle=orthogonalEdgeStyle;rounded=0;orthogonalLoop=1;jettySize=auto;html=1;entryX=0;entryY=0.5;entryDx=0;entryDy=0;" edge="1" parent="1" source="xKCvOvqSmLsIwHPzXdJe-12" target="xKCvOvqSmLsIwHPzXdJe-15">
          <mxGeometry relative="1" as="geometry" />
        </mxCell>
        <mxCell id="xKCvOvqSmLsIwHPzXdJe-19" style="edgeStyle=orthogonalEdgeStyle;rounded=0;orthogonalLoop=1;jettySize=auto;html=1;entryX=0;entryY=0.5;entryDx=0;entryDy=0;" edge="1" parent="1" source="xKCvOvqSmLsIwHPzXdJe-12" target="xKCvOvqSmLsIwHPzXdJe-16">
          <mxGeometry relative="1" as="geometry" />
        </mxCell>
        <mxCell id="xKCvOvqSmLsIwHPzXdJe-12" value="set" style="rounded=0;whiteSpace=wrap;html=1;fillColor=#f8cecc;strokeColor=#b85450;" vertex="1" parent="1">
          <mxGeometry x="200" y="320" width="80" height="20" as="geometry" />
        </mxCell>
        <mxCell id="xKCvOvqSmLsIwHPzXdJe-14" value="CharaA" style="rounded=0;whiteSpace=wrap;html=1;fillColor=#f8cecc;strokeColor=#b85450;" vertex="1" parent="1">
          <mxGeometry x="280" y="350" width="80" height="20" as="geometry" />
        </mxCell>
        <mxCell id="xKCvOvqSmLsIwHPzXdJe-15" value="EnvA" style="rounded=0;whiteSpace=wrap;html=1;fillColor=#f8cecc;strokeColor=#b85450;" vertex="1" parent="1">
          <mxGeometry x="280" y="380" width="80" height="20" as="geometry" />
        </mxCell>
        <mxCell id="xKCvOvqSmLsIwHPzXdJe-16" value="PropA" style="rounded=0;whiteSpace=wrap;html=1;fillColor=#f8cecc;strokeColor=#b85450;" vertex="1" parent="1">
          <mxGeometry x="280" y="410" width="80" height="20" as="geometry" />
        </mxCell>
        <mxCell id="xKCvOvqSmLsIwHPzXdJe-20" value="fx" style="rounded=0;whiteSpace=wrap;html=1;fillColor=#e1d5e7;strokeColor=#9673a6;" vertex="1" parent="1">
          <mxGeometry x="200" y="450" width="80" height="20" as="geometry" />
        </mxCell>
      </root>
    </mxGraphModel>
  </diagram>
</mxfile>
